<?xml version="1.0" encoding="UTF-8" standalone="no"?>
<!DOCTYPE svg PUBLIC "-//W3C//DTD SVG 1.1//EN" "http://www.w3.org/Graphics/SVG/1.1/DTD/svg11.dtd">
<svg width="100%" height="100%" viewBox="0 0 1243 8208" version="1.1" xmlns="http://www.w3.org/2000/svg" xmlns:xlink="http://www.w3.org/1999/xlink" xml:space="preserve" xmlns:serif="http://www.serif.com/" style="fill-rule:evenodd;clip-rule:evenodd;stroke-linejoin:round;stroke-miterlimit:2;">
    <g transform="matrix(6.12323e-17,-1,1,6.12323e-17,7.3069e-05,8207.2)">
        <path d="M2865.99,1038.28C2857.55,1031.13 2849.69,1023.38 2842.4,1015.08C2835.77,1007.48 2836.19,995.879 2843.36,988.803L2933.49,900.012C2940.38,893.089 2951.6,892.59 2959.19,898.861C2975.17,912.285 2990.32,926.227 3004.64,940.668C3135.43,1072.03 3314.74,1099.84 3493.09,1043.46C3579.77,1016.23 3651.49,963.489 3661.65,868.178C3681.41,684.076 3478.89,676.981 3339.86,675.638C3127.95,673.72 2843.36,618.49 2882.1,331.215C2907.22,145.004 3083.84,21.694 3263.73,6.352C3460.35,-10.39 3630.84,45.224 3775.18,173.194C3782.91,180.117 3783.76,192.084 3777.1,200.042L3692.91,299.38C3689.27,303.638 3683.94,306.073 3678.36,306.073C3673.7,306.073 3669.19,304.386 3665.68,301.298C3528.89,182.265 3378.35,145.004 3214.06,189.495C3097.08,221.137 2996.4,411.567 3148.86,478.304C3171.62,488.276 3214,495.506 3276,499.974C3482.73,514.741 3800.88,506.111 3835.59,779.962C3899.26,1283.56 3178.58,1358.16 2904.54,1073.18C2896.48,1064.99 2883.63,1053.37 2865.99,1038.28Z" style="fill-rule:nonzero;"/>
        <path d="M8206.63,649.005C8191.77,989.42 7891.89,1257 7542.31,1241.74C7192.75,1226.47 6917.32,933.787 6932.19,593.353C6947.05,252.937 7246.92,-14.643 7596.51,0.622C7946.07,15.887 8221.49,308.57 8206.63,649.005ZM8033.69,607.985C8026.86,363.072 7811.22,167.387 7555.98,174.521C7300.75,181.655 7096.36,389.057 7103.21,633.989C7110.04,878.902 7325.69,1074.59 7580.91,1067.45C7836.15,1060.32 8040.54,852.917 8033.69,607.985Z" style="fill-rule:nonzero;"/>
        <path d="M291.065,453.186L289.339,1197.45L289.339,1197.55C289.281,1208.08 280.671,1216.69 270.258,1216.63L270.162,1216.63L140.715,1215.48C130.302,1215.48 121.73,1206.83 121.73,1196.3L121.73,205.416C121.73,200.948 120.176,196.614 117.319,193.142L8.2,61.97C-5.741,45.343 -1.906,36.982 19.707,36.848L201.315,35.314C207.011,35.199 212.515,37.749 216.274,42.218L678.445,598.166C682.089,602.558 687.497,605.089 693.193,605.089C698.812,605.089 704.143,602.634 707.787,598.358L1179.55,42.026C1183.33,37.768 1188.77,35.333 1194.51,35.314L1372.66,36.848C1393.89,36.982 1397.84,45.286 1384.55,61.778L1276.58,195.636C1273.86,198.992 1272.37,203.249 1272.37,207.717L1272.37,1196.69C1272.37,1207.22 1263.72,1215.87 1253.19,1215.87L1123.74,1215.87C1113.12,1215.87 1104.37,1207.22 1104.37,1196.69L1104.56,451.077C1104.56,415.925 1093.31,411.763 1070.81,438.611L709.896,868.182C706.214,872.516 700.806,875.009 695.13,875.009C689.453,875.009 684.045,872.516 680.363,868.182L325.009,440.913C302.379,413.93 291.065,418.034 291.065,453.186Z" style="fill-rule:nonzero;"/>
        <path d="M1891.02,1047.3L2581.21,1048.45C2591.74,1048.45 2600.39,1057.1 2600.39,1067.63L2600.39,1196.69C2600.39,1207.1 2591.74,1215.68 2581.21,1215.68L1718.23,1216.06C1707.7,1216.06 1699.06,1207.41 1699.06,1196.88L1699.06,55.643C1699.06,45.114 1707.7,36.465 1718.23,36.465L2514.09,36.465C2524.62,36.465 2533.27,45.114 2533.27,55.643L2533.27,184.897C2533.27,195.426 2524.62,204.075 2514.09,204.075L1890.06,204.65C1879.53,204.65 1870.88,213.299 1870.88,223.827L1871.46,536.224C1871.5,546.714 1880.15,555.325 1890.64,555.325C1892.78,555.325 1894.93,554.961 1896.97,554.251C1906.94,550.799 1916.58,547.156 1925.92,543.32C1942.41,536.282 1957.76,532.063 1971.95,530.663C2092.38,518.907 2213.06,516.223 2334.01,522.609C2344.14,523.126 2352.16,531.66 2352.04,541.786L2351.47,676.218C2351.47,686.497 2343.14,694.993 2332.86,695.204C2202.32,698.905 2117.31,700.248 2077.81,699.231C2004.41,697.313 1938.96,711.255 1881.43,741.038C1875.06,744.336 1871.06,750.933 1871.08,758.105L1871.84,1028.12C1871.94,1038.61 1880.53,1047.2 1891.02,1047.3L1891.02,1047.3Z" style="fill-rule:nonzero;"/>
        <path d="M4604.41,210.786C4604.41,210.786 4604.41,1210.11 4604.41,1210.11C4604.41,1213.7 4601.48,1216.63 4597.89,1216.63L4443.13,1215.48C4439.54,1215.48 4436.61,1212.55 4436.61,1208.96L4436.61,210.786C4436.61,207.199 4433.68,204.265 4430.09,204.265L4016.43,204.265C4012.85,204.265 4009.91,201.331 4009.91,197.745L4009.91,42.985C4009.91,39.398 4012.85,36.464 4016.43,36.464L5014.99,36.464C5018.58,36.464 5021.52,39.398 5021.52,42.985L5021.52,197.745C5021.52,201.331 5018.58,204.265 5014.99,204.265L4610.93,204.265C4607.34,204.265 4604.41,207.199 4604.41,210.786Z" style="fill-rule:nonzero;"/>
        <path d="M5453.2,36.963C5453.2,36.368 5452.72,35.889 5452.13,35.889L5286.28,35.889C5285.69,35.889 5285.21,36.368 5285.21,36.963L5285.21,1215.36C5285.21,1215.96 5285.69,1216.44 5286.28,1216.44L5452.13,1216.44C5452.72,1216.44 5453.2,1215.96 5453.2,1215.36L5453.2,36.963Z"/>
        <path d="M5789.37,198.32L5787.07,42.026C5787.07,38.766 5789.75,36.081 5793.01,36.081L6651.2,36.656C6654.46,36.656 6657.14,39.341 6657.14,42.601L6655.03,201.005C6655.01,202.328 6654.53,203.613 6653.69,204.649L5969.83,1038.28C5968.93,1039.36 5968.43,1040.72 5968.43,1042.12C5968.43,1045.38 5971.11,1048.06 5974.37,1048.06L6707.77,1048.06C6711.03,1048.06 6713.71,1050.75 6713.71,1054.01L6714.48,1209.92C6714.48,1213.18 6711.8,1215.87 6708.54,1215.87L5756.19,1215.87C5752.93,1215.87 5750.25,1213.18 5750.25,1209.92L5750.25,1045.57C5750.27,1044.25 5750.75,1042.96 5751.59,1041.93L6414.74,213.854C6415.55,212.818 6415.99,211.533 6415.99,210.21C6415.99,206.95 6413.3,204.265 6410.04,204.265L5795.32,204.265C5792.06,204.265 5789.37,201.58 5789.37,198.32Z" style="fill-rule:nonzero;"/>
    </g>
</svg>
